<!DOCTYPE svg PUBLIC "-//W3C//DTD SVG 1.1//EN" "http://www.w3.org/Graphics/SVG/1.1/DTD/svg11.dtd">
<!-- Uploaded to: SVG Repo, www.svgrepo.com, Transformed by: SVG Repo Mixer Tools -->
<svg fill="#ffffff" version="1.1" id="Layer_1" xmlns="http://www.w3.org/2000/svg" xmlns:xlink="http://www.w3.org/1999/xlink" viewBox="0 0 481.882 481.882" xml:space="preserve" width="800px" height="800px" stroke="#ffffff">
<g id="SVGRepo_bgCarrier" stroke-width="0"/>
<g id="SVGRepo_tracerCarrier" stroke-linecap="round" stroke-linejoin="round"/>
<g id="SVGRepo_iconCarrier"> <g> <g> <polygon points="317.411,176.14 317.411,187.714 319.352,187.714 350.426,187.714 352.367,187.714 352.367,176.14 "/> </g> </g> <g> <g> <polygon points="350.426,366.75 319.352,366.75 317.411,366.75 317.411,378.324 352.367,378.324 352.367,366.75 "/> </g> </g> <g> <g> <rect x="326.852" y="202.775" width="16.015" height="148.917"/> </g> </g> <g> <g> <path d="M309.882,202.772c-4.161,0-7.529-3.368-7.529-7.529V176.14H179.529v19.103c0,4.161-3.367,7.529-7.529,7.529h-1.941 v148.919H172c4.162,0,7.529,3.368,7.529,7.529v19.103h10.515V241.802c0-4.162,3.368-7.529,7.529-7.529h86.735 c4.162,0,7.529,3.367,7.529,7.529v136.522h10.515v-19.103c0-4.161,3.368-7.529,7.529-7.529h1.941V202.772H309.882z"/> </g> </g> <g> <g> <rect x="205.101" y="249.299" width="71.672" height="128.979"/> </g> </g> <g> <g> <polygon points="434.948,85.794 289.33,85.794 364.558,149.985 461.97,149.985 "/> </g> </g> <g> <g> <polygon points="294.966,110.404 264.014,83.993 264.01,83.988 240.941,64.301 217.872,83.988 217.87,83.991 186.915,110.404 127.529,161.081 172,161.081 309.882,161.081 354.353,161.081 "/> </g> </g> <g> <g> <path d="M381.351,165.044c1.009,1.867,1.256,4.1,0.494,6.17c-1.096,2.963-3.911,4.926-7.066,4.926h-7.353v19.103 c0,4.161-3.368,7.529-7.529,7.529h-1.941v148.919h1.941c4.162,0,7.529,3.368,7.529,7.529v19.103h98.353v-213.28H381.351z M446.073,342.228c0,4.161-3.368,7.529-7.529,7.529h-35.118c-4.161,0-7.529-3.368-7.529-7.529v-40.273 c0-4.161,3.368-7.529,7.529-7.529h35.118c4.162,0,7.529,3.368,7.529,7.529V342.228z M446.073,251.956 c0,4.161-3.368,7.529-7.529,7.529h-35.118c-4.161,0-7.529-3.368-7.529-7.529v-40.272c0-4.162,3.368-7.529,7.529-7.529h35.118 c4.162,0,7.529,3.367,7.529,7.529V251.956z"/> </g> </g> <g> <g> <polygon points="162.529,366.75 131.463,366.75 129.514,366.75 129.514,378.324 164.47,378.324 164.47,366.75 "/> </g> </g> <g> <g> <polygon points="46.934,85.794 19.912,149.985 117.323,149.985 192.551,85.794 "/> </g> </g> <g> <g> <rect x="138.993" y="202.775" width="16.008" height="148.917"/> </g> </g> <g> <g> <path d="M121.985,202.772c-4.161,0-7.529-3.368-7.529-7.529V176.14h-7.352c-3.155,0-5.971-1.964-7.066-4.926 c-0.762-2.07-0.514-4.302,0.495-6.17H16.102v213.28h98.353v-19.103c0-4.161,3.368-7.529,7.529-7.529h1.949V202.772H121.985z M85.985,342.228c0,4.161-3.368,7.529-7.529,7.529H43.338c-4.161,0-7.529-3.368-7.529-7.529v-40.273 c0-4.161,3.368-7.529,7.529-7.529h35.118c4.161,0,7.529,3.368,7.529,7.529V342.228z M85.985,251.956 c0,4.161-3.368,7.529-7.529,7.529H43.338c-4.161,0-7.529-3.368-7.529-7.529v-40.272c0-4.162,3.368-7.529,7.529-7.529h35.118 c4.161,0,7.529,3.367,7.529,7.529V251.956z"/> </g> </g> <g> <g> <polygon points="473.309,393.382 359.897,393.382 309.882,393.382 284.308,393.382 197.573,393.382 172,393.382 121.985,393.382 8.573,393.382 0,393.382 0,417.581 481.882,417.581 481.882,393.382 "/> </g> </g> <g> <g> <polygon points="129.514,176.14 129.514,187.714 131.463,187.714 162.529,187.714 164.47,187.714 164.47,176.14 "/> </g> </g> </g>
</svg>