<!DOCTYPE svg PUBLIC "-//W3C//DTD SVG 1.1//EN" "http://www.w3.org/Graphics/SVG/1.1/DTD/svg11.dtd">
<!-- Uploaded to: SVG Repo, www.svgrepo.com, Transformed by: SVG Repo Mixer Tools -->
<svg fill="#ffffff" height="800px" width="800px" version="1.1" id="Layer_1" xmlns="http://www.w3.org/2000/svg" xmlns:xlink="http://www.w3.org/1999/xlink" viewBox="0 0 511.999 511.999" xml:space="preserve" stroke="#ffffff">
<g id="SVGRepo_bgCarrier" stroke-width="0"/>
<g id="SVGRepo_tracerCarrier" stroke-linecap="round" stroke-linejoin="round"/>
<g id="SVGRepo_iconCarrier"> <g> <g> <path d="M281.914,386.02c-7.902,4.413-16.864,6.746-25.914,6.746s-18.012-2.333-25.912-6.745L0,257.548v188.9 c0,9.784,7.932,17.717,17.717,17.717h476.566c9.784,0,17.717-7.932,17.717-17.717v-188.9L281.914,386.02z"/> </g> </g> <g> <g> <path d="M494.282,119.334H346.354c0-12.185,0-48.434,0-53.783c0-9.784-7.932-17.717-17.717-17.717H183.363 c-9.784,0-17.717,7.932-17.717,17.717c0,5.35,0,41.601,0,53.783H17.718C7.932,119.333,0,127.265,0,137.05v69.515 c0,6.421,3.474,12.339,9.081,15.47l215.031,120.067v-39.835c0-5.808,4.708-10.516,10.516-10.516h42.747 c5.808,0,10.516,4.708,10.516,10.516v39.836l215.03-120.068c5.605-3.131,9.08-9.048,9.08-15.469v-69.515 C511.999,127.266,504.067,119.334,494.282,119.334z M310.919,119.333H201.081V83.899h109.839V119.333z"/> </g> </g> </g>
</svg>